<svg width="155" height="290" viewBox="0 0 155 290" fill="none" xmlns="http://www.w3.org/2000/svg">
<path fill-rule="evenodd" clip-rule="evenodd" d="M-13 0H155V191H-13V0Z" fill="#4AF6CD"/>
<path d="M47.22 155.36C47.22 152.2 47.68 149.42 48.6 147.02C49.52 144.58 50.9 142.4 52.74 140.48L58.62 145.46C56.34 148.34 55.2 151.36 55.2 154.52C55.2 156.16 55.52 157.42 56.16 158.3C56.76 159.14 57.62 159.56 58.74 159.56C59.54 159.56 60.2 159.34 60.72 158.9C61.24 158.46 61.74 157.72 62.22 156.68C62.7 155.64 63.3 154 64.02 151.76C65.38 147.48 67.1 144.36 69.18 142.4C71.22 140.4 74.06 139.4 77.7 139.4C80.34 139.4 82.68 140.08 84.72 141.44C86.72 142.8 88.28 144.78 89.4 147.38C90.52 149.94 91.08 152.96 91.08 156.44C91.08 163.08 89.06 168.5 85.02 172.7L78.96 167.24C81.68 163.92 83.04 160.46 83.04 156.86C83.04 154.98 82.64 153.52 81.84 152.48C81 151.44 79.9 150.92 78.54 150.92C77.58 150.92 76.8 151.12 76.2 151.52C75.56 151.92 75 152.64 74.52 153.68C74 154.68 73.44 156.16 72.84 158.12C71.36 162.84 69.58 166.16 67.5 168.08C65.42 170 62.8 170.96 59.64 170.96C57.16 170.96 54.98 170.3 53.1 168.98C51.22 167.62 49.78 165.76 48.78 163.4C47.74 161 47.22 158.32 47.22 155.36ZM76.02 101.955C78.9 101.955 81.48 102.595 83.76 103.875C86.04 105.115 87.84 106.995 89.16 109.515C90.44 112.035 91.08 115.115 91.08 118.755C91.08 124.275 89.74 128.455 87.06 131.295C84.34 134.135 80.66 135.555 76.02 135.555H48.3V124.455H75.66C78.18 124.455 80.04 124.015 81.24 123.135C82.4 122.215 82.98 120.755 82.98 118.755C82.98 116.755 82.38 115.315 81.18 114.435C79.98 113.555 78.14 113.115 75.66 113.115H48.3V101.955H76.02ZM74.64 81.9477V85.0077H90V96.1077H48.3V81.6477C48.3 75.7677 49.36 71.3877 51.48 68.5077C53.6 65.5877 56.86 64.1277 61.26 64.1277C63.9 64.1277 66.1 64.7477 67.86 65.9877C69.62 67.1877 71.2 69.1277 72.6 71.8077L90 61.4277V73.7877L74.64 81.9477ZM67.08 85.0077V81.2877C67.08 77.4477 65.14 75.5277 61.26 75.5277C59.46 75.5277 58.14 76.0677 57.3 77.1477C56.46 78.1877 56.04 79.7677 56.04 81.8877V85.0077H67.08ZM90 58.9006H48.3V33.2806L56.16 34.4206V47.8006H66.18V36.0406H74.04V47.8006H90V58.9006Z" fill="white"/>
<path d="M47.22 267.92C47.22 262.36 48.98 257.58 52.5 253.58L58.2 259.04C57.12 260.56 56.34 261.94 55.86 263.18C55.34 264.38 55.08 265.76 55.08 267.32C55.08 270.32 56.24 272.68 58.56 274.4C60.88 276.08 64.42 276.92 69.18 276.92C72.66 276.92 75.42 276.64 77.46 276.08C79.46 275.52 80.9 274.68 81.78 273.56C82.66 272.4 83.1 270.92 83.1 269.12C83.1 267.32 82.72 265.68 81.96 264.2H73.38V268.94L65.76 270.02V253.46H86.52C87.96 255.62 89.08 258.06 89.88 260.78C90.68 263.5 91.08 266.18 91.08 268.82C91.08 281.86 83.76 288.38 69.12 288.38C64.56 288.38 60.64 287.5 57.36 285.74C54.04 283.94 51.52 281.5 49.8 278.42C48.08 275.34 47.22 271.84 47.22 267.92ZM47.22 230.335C47.22 224.295 49.14 219.595 52.98 216.235C56.82 212.875 62.2 211.195 69.12 211.195C73.64 211.195 77.56 211.955 80.88 213.475C84.16 214.955 86.68 217.135 88.44 220.015C90.2 222.895 91.08 226.335 91.08 230.335C91.08 236.375 89.16 241.075 85.32 244.435C81.48 247.755 76.08 249.415 69.12 249.415C64.6 249.415 60.7 248.675 57.42 247.195C54.14 245.675 51.62 243.495 49.86 240.655C48.1 237.775 47.22 234.335 47.22 230.335ZM55.2 230.335C55.2 232.935 56.28 234.855 58.44 236.095C60.6 237.295 64.16 237.895 69.12 237.895C74.08 237.895 77.66 237.275 79.86 236.035C82.02 234.795 83.1 232.895 83.1 230.335C83.1 227.695 82.02 225.775 79.86 224.575C77.7 223.375 74.12 222.775 69.12 222.775C64.16 222.775 60.6 223.375 58.44 224.575C56.28 225.775 55.2 227.695 55.2 230.335Z" fill="white"/>
<rect x="70" y="201" width="20" height="1" transform="rotate(-90 70 201)" fill="white"/>
</svg>
